<svg width="42" height="42" viewBox="0 0 42 42" fill="none" xmlns="http://www.w3.org/2000/svg">
<path d="M31.4824 2.793C29.7171 2.60573 27.9429 2.5146 26.1677 2.52C20.2824 2.52 16.6249 6.2685 16.6249 12.3025V16.3993H11.6812C11.4491 16.3993 11.2265 16.4914 11.0624 16.6555C10.8983 16.8196 10.8062 17.0422 10.8062 17.2743V24.0118C10.8062 24.2438 10.8983 24.4664 11.0624 24.6305C11.2265 24.7946 11.4491 24.8868 11.6812 24.8868H16.6249V38.3968C16.6249 38.6288 16.7171 38.8514 16.8812 39.0155C17.0453 39.1796 17.2678 39.2718 17.4999 39.2718H24.4614C24.6935 39.2718 24.916 39.1796 25.0801 39.0155C25.2442 38.8514 25.3364 38.6288 25.3364 38.3968V24.8868H30.2644C30.4768 24.8869 30.6821 24.8097 30.8418 24.6696C31.0015 24.5295 31.1048 24.3361 31.1324 24.1255L32.0022 17.388C32.0183 17.2645 32.008 17.139 31.9718 17.0198C31.9356 16.9007 31.8743 16.7906 31.7921 16.697C31.71 16.6034 31.6088 16.5284 31.4953 16.4771C31.3818 16.4257 31.2587 16.3992 31.1342 16.3993H25.3364V12.971C25.3364 11.2735 25.6777 10.5648 27.8004 10.5648H31.3687C31.6007 10.5648 31.8233 10.4726 31.9874 10.3085C32.1515 10.1444 32.2437 9.92182 32.2437 9.68975V3.661C32.2438 3.44857 32.1666 3.24335 32.0265 3.08363C31.8864 2.92392 31.693 2.82062 31.4824 2.793ZM30.4937 8.813L27.7987 8.81475C24.0239 8.81475 23.5864 11.1878 23.5864 12.971V17.276C23.5864 17.5078 23.6783 17.7301 23.8421 17.8941C24.0058 18.0581 24.2279 18.1505 24.4597 18.151H30.1402L29.4944 23.1385H24.4614C24.2293 23.1385 24.0068 23.2307 23.8427 23.3948C23.6786 23.5589 23.5864 23.7814 23.5864 24.0135V37.52H18.3749V24.0135C18.3749 23.7814 18.2827 23.5589 18.1186 23.3948C17.9545 23.2307 17.732 23.1385 17.4999 23.1385H12.5579V18.151H17.4999C17.732 18.151 17.9545 18.0588 18.1186 17.8947C18.2827 17.7306 18.3749 17.5081 18.3749 17.276V12.3025C18.3749 7.273 21.2887 4.27 26.1677 4.27C27.9334 4.27 29.5277 4.36625 30.4937 4.45025V8.813Z" fill="white"/>
</svg>
